<svg width="69" height="89" viewBox="0 0 69 89" fill="none" xmlns="http://www.w3.org/2000/svg">
<path d="M29.7915 88.6168L25.4653 80.4944L28.9963 70.4219V64.278L18.3085 70.4219V76.5563L22.8809 84.4798C22.9501 84.6069 23.0602 84.707 23.1933 84.7638L29.7915 88.6168Z" fill="#BA68C8"/>
<path opacity="0.2" d="M29.7915 88.6168L25.4653 80.4944L28.9963 70.4219V64.278L18.3085 70.4219V76.5563L22.8809 84.4798C22.9501 84.6069 23.0602 84.707 23.1933 84.7638L29.7915 88.6168Z" fill="black"/>
<path d="M68.5291 7.79052C68.4688 6.68324 68.1485 5.60574 67.5942 4.64526C67.04 3.68479 66.2673 2.86833 65.3389 2.262L62.7355 0.766265C61.7475 0.262582 60.6543 0 59.5453 0C58.4363 0 57.343 0.262582 56.355 0.766265L3.19978 31.495C2.27078 32.1008 1.49773 32.9171 0.943417 33.8777C0.389101 34.8383 0.0691432 35.9161 0.00952148 37.0235V80.8352C0.0698891 81.9425 0.390165 83.02 0.944414 83.9804C1.49866 84.9409 2.27131 85.7574 3.19978 86.3637L5.79364 87.8594C6.78299 88.3587 7.87572 88.6188 8.98391 88.6188C10.0921 88.6188 11.1848 88.3587 12.1742 87.8594L24.9825 80.4565L29.5549 88.4085C29.6203 88.5207 29.7164 88.6118 29.8318 88.6713C29.9472 88.7307 30.0772 88.756 30.2065 88.744C30.3358 88.7321 30.4589 88.6835 30.5615 88.6039C30.6641 88.5244 30.7419 88.4172 30.7856 88.2949L35.6136 74.3695L65.3389 57.1686C66.2673 56.5622 67.04 55.7458 67.5942 54.7853C68.1485 53.8248 68.4688 52.7473 68.5291 51.64V7.79052Z" fill="#BA68C8"/>
<path opacity="0.2" d="M0.00946145 80.8353C0.069829 81.9425 0.390105 83.02 0.944354 83.9805C1.4986 84.941 2.27125 85.7574 3.19972 86.3638L5.79358 87.8595C6.69378 88.3126 7.67982 88.5696 8.68664 88.6137C9.69345 88.6577 10.6982 88.4878 11.6345 88.1151C10.1293 88.6831 8.98385 87.8406 8.98385 86.023V42.2019C9.02716 41.0908 9.35297 40.0091 9.93051 39.0589L0.946665 33.8807C0.366796 34.8298 0.0407976 35.9121 0 37.0236L0.00946145 80.8353Z" fill="black"/>
<path opacity="0.3" d="M68.425 6.88176C68.0463 5.52803 66.8157 5.09257 65.3389 5.9351L12.1742 36.6828C11.227 37.2596 10.4521 38.0802 9.93056 39.0589L0.956177 33.8806C1.48329 32.906 2.25692 32.0866 3.19977 31.5045L56.355 0.766306C57.3444 0.267028 58.4371 0.00692749 59.5453 0.00692749C60.6535 0.00692749 61.7462 0.267028 62.7355 0.766306L65.3389 2.26204C66.1404 2.78176 66.8274 3.4595 67.3581 4.25382C67.8887 5.04814 68.2517 5.94235 68.425 6.88176Z" fill="white"/>
<path d="M33.5593 39.7878C33.557 41.1636 33.3691 42.5329 33.0007 43.8585C32.6388 45.1691 32.1407 46.4382 31.5145 47.6451C30.9291 48.7707 30.2073 49.8199 29.3656 50.7691C28.6385 51.6158 27.7784 52.3384 26.819 52.9086C26.009 53.419 25.0855 53.7214 24.1305 53.789C23.3663 53.8354 22.6117 53.5996 22.01 53.1263C21.3533 52.5706 20.8703 51.8378 20.6184 51.0153C20.2531 49.901 20.0834 48.732 20.1166 47.5599C20.1114 46.1592 20.2799 44.7633 20.6184 43.4041C20.9333 42.092 21.4004 40.8212 22.01 39.6174C22.5824 38.4851 23.2948 37.4292 24.1305 36.4745C24.9003 35.5949 25.8084 34.8467 26.819 34.2593C27.6321 33.7407 28.5639 33.4378 29.5265 33.3789C30.295 33.3328 31.0536 33.5722 31.6565 34.051C32.3197 34.6222 32.8058 35.3711 33.0575 36.2094C33.4187 37.3669 33.5882 38.5756 33.5593 39.7878ZM44.7867 25.4174C44.9988 24.9946 45.2391 24.5866 45.5062 24.1962C45.816 23.7644 46.2167 23.4057 46.68 23.1454L51.0347 20.6368L29.8862 69.125C29.6937 69.5631 29.449 69.9763 29.1573 70.3556C28.8782 70.7387 28.5239 71.0609 28.116 71.3023L23.6477 73.8867L44.7867 25.4174ZM28.9964 42.4385C29.0123 41.7402 28.9552 41.0422 28.826 40.3558C28.7691 39.9545 28.6129 39.5738 28.3715 39.2482C28.294 39.1417 28.191 39.0564 28.0719 39.0002C27.9528 38.944 27.8214 38.9186 27.69 38.9263C27.3867 38.9483 27.0937 39.0459 26.838 39.2103C26.5211 39.397 26.234 39.6299 25.986 39.9014C25.7083 40.2283 25.4875 40.5995 25.3328 40.9995C25.1336 41.5218 24.9938 42.0648 24.9162 42.6183C24.797 43.3603 24.7369 44.1105 24.7364 44.8619C24.7237 45.522 24.7776 46.1817 24.8973 46.831C24.9506 47.2123 25.0934 47.5756 25.3138 47.8913C25.388 47.9937 25.4866 48.076 25.6007 48.1306C25.7148 48.1852 25.8407 48.2103 25.967 48.2037C26.2697 48.1787 26.5619 48.0813 26.819 47.9197C27.1367 47.7342 27.424 47.5012 27.671 47.2286C27.956 46.9052 28.1862 46.5375 28.3526 46.1399C28.5684 45.6369 28.721 45.109 28.807 44.5685C28.9335 43.8655 28.9968 43.1527 28.9964 42.4385ZM54.8214 47.0961C54.8225 48.4752 54.6346 49.8481 54.2628 51.1762C53.9051 52.4868 53.4101 53.7561 52.786 54.9628C52.1939 56.0844 51.4727 57.1328 50.6371 58.0868C49.9046 58.9317 49.0417 59.6539 48.0811 60.2263C47.2717 60.7393 46.3483 61.045 45.3926 61.1162C44.6306 61.1558 43.8803 60.9169 43.2815 60.444C42.617 59.8896 42.1299 59.1523 41.8805 58.3235C41.5208 57.2015 41.3512 56.0272 41.3787 54.8493C41.3781 53.4488 41.5466 52.0534 41.8805 50.6934C42.1944 49.3797 42.6648 48.1084 43.2815 46.9067C43.8494 45.7769 44.5588 44.7239 45.3926 43.7733C46.1615 42.8875 47.0696 42.1329 48.0811 41.5391C48.8942 41.0206 49.826 40.7176 50.7886 40.6587C51.5613 40.6147 52.3231 40.8574 52.928 41.3403C53.5894 41.9114 54.0725 42.6607 54.3196 43.4987C54.6825 44.662 54.8457 45.8783 54.8024 47.0961H54.8214ZM50.2395 49.7373C50.2543 49.0484 50.1972 48.36 50.0691 47.683C50.0106 47.2838 49.8581 46.9041 49.6242 46.5754C49.5473 46.4683 49.4443 46.3825 49.3251 46.3262C49.2058 46.2699 49.0742 46.2449 48.9426 46.2535C48.6367 46.277 48.341 46.3745 48.0811 46.5375C47.7636 46.7271 47.4764 46.9632 47.2291 47.2381C46.9474 47.5621 46.7262 47.934 46.5759 48.3362C46.3764 48.8557 46.2336 49.3953 46.1499 49.9455C46.0448 50.6855 45.9941 51.4322 45.9985 52.1797C45.9882 52.8393 46.0389 53.4984 46.1499 54.1487C46.2103 54.5326 46.3559 54.8981 46.5759 55.2184C46.6512 55.3197 46.75 55.401 46.8639 55.4555C46.9777 55.5099 47.1031 55.5358 47.2291 55.5308C47.5318 55.5059 47.824 55.4085 48.0811 55.2468C48.4016 55.0576 48.692 54.8215 48.9426 54.5463C49.2243 54.2206 49.4542 53.8534 49.6242 53.4576C49.834 52.9532 49.9834 52.4257 50.0691 51.8862C50.1844 51.1759 50.2351 50.4567 50.2206 49.7373H50.2395Z" fill="white"/>
</svg>
