<svg width="49" height="33" viewBox="0 0 49 33" fill="none" xmlns="http://www.w3.org/2000/svg">
<path d="M47.659 5.39195C47.3841 4.41132 46.8486 3.52351 46.1094 2.82289C45.3494 2.10073 44.4179 1.58415 43.4028 1.32191C39.6038 0.320578 24.3836 0.320578 24.3836 0.320578C18.0385 0.248387 11.6949 0.565903 5.38872 1.27133C4.37361 1.55295 3.44384 2.08107 2.6821 2.80873C1.93363 3.52888 1.39149 4.41692 1.10829 5.38993C0.427979 9.05488 0.0974376 12.7762 0.121122 16.5037C0.0968469 20.2278 0.426577 23.9479 1.10829 27.6174C1.38543 28.5864 1.92554 29.4704 2.67603 30.1845C3.42652 30.8985 4.36109 31.4144 5.38872 31.6875C9.23827 32.6868 24.3836 32.6868 24.3836 32.6868C30.7368 32.7591 37.0885 32.4415 43.4028 31.736C44.4179 31.4738 45.3494 30.9572 46.1094 30.235C46.8483 29.5345 47.3832 28.6466 47.6569 27.666C48.355 24.0024 48.6944 20.2796 48.6704 16.5502C48.7229 12.805 48.3839 9.06463 47.659 5.38993V5.39195ZM19.5449 23.43V9.57933L32.2081 16.5057L19.5449 23.43Z" fill="white"/>
</svg>
