<svg width="40" height="39" viewBox="0 0 40 39" fill="none" xmlns="http://www.w3.org/2000/svg">
<path fill-rule="evenodd" clip-rule="evenodd" d="M20.1505 0.275391C9.41106 0.275391 0.704102 8.98284 0.704102 19.7238C0.704102 28.3161 6.27504 35.6054 14.0036 38.1754C14.977 38.3554 15.331 37.7565 15.331 37.2394C15.331 36.7787 15.3141 35.5565 15.3056 33.9319C9.89575 35.1082 8.75433 31.3244 8.75433 31.3244C7.86972 29.078 6.59467 28.4806 6.59467 28.4806C4.82895 27.2749 6.72881 27.2983 6.72881 27.2983C8.68053 27.4364 9.70775 29.3019 9.70775 29.3019C11.4421 32.2739 14.2599 31.4137 15.3674 30.919C15.5435 29.6599 16.0471 28.8047 16.6021 28.3176C12.2843 27.8269 7.74456 26.1584 7.74456 18.7065C7.74456 16.5828 8.50201 14.8465 9.74565 13.4867C9.54669 12.997 8.878 11.0198 9.93664 8.34108C9.93664 8.34108 11.5692 7.81849 15.2852 10.3362C16.8355 9.90286 18.4995 9.68644 20.1535 9.67996C21.805 9.68694 23.4695 9.90286 25.0218 10.3362C28.7353 7.81849 30.3654 8.34108 30.3654 8.34108C31.4265 11.0198 30.7583 12.997 30.5589 13.4867C31.8055 14.8465 32.5575 16.5828 32.5575 18.7065C32.5575 26.1758 28.0113 27.8214 23.679 28.3011C24.3761 28.902 24.9984 30.0913 24.9984 31.9059C24.9984 34.5043 24.975 36.6012 24.975 37.2389C24.975 37.76 25.3245 38.3659 26.3119 38.1729C34.032 35.5974 39.5989 28.3136 39.5989 19.7238C39.5989 8.98284 30.892 0.275391 20.1505 0.275391Z" fill="white"/>
</svg>
