<svg width="38" height="38" viewBox="0 0 38 38" fill="none" xmlns="http://www.w3.org/2000/svg">
<path d="M35.131 0.0351562H2.05921C1.51501 0.0351562 0.99311 0.251336 0.608307 0.636139C0.223504 1.02094 0.00732422 1.54285 0.00732422 2.08704V35.1593C0.00746113 35.7034 0.223702 36.2252 0.60849 36.6099C0.993277 36.9946 1.5151 37.2107 2.05921 37.2107H19.8637V22.8145H15.019V17.2041H19.8637V13.0662C19.8637 8.26437 22.7964 5.65021 27.0799 5.65021C29.1318 5.65021 30.895 5.80253 31.4093 5.8712V10.8894L28.4384 10.8909C26.1087 10.8909 25.6579 11.9979 25.6579 13.6223V17.2046H31.2136L30.4902 22.815H25.6579V37.2107H35.1315C35.6756 37.2106 36.1974 36.9943 36.5821 36.6095C36.9668 36.2247 37.1829 35.7029 37.1829 35.1588V2.08704C37.1829 1.54285 36.9667 1.02094 36.5819 0.636139C36.1971 0.251336 35.6752 0.0351563 35.131 0.0351562Z" fill="white"/>
</svg>
