<svg width="79" height="101" viewBox="0 0 79 101" fill="none" xmlns="http://www.w3.org/2000/svg">
<path opacity="0.1" d="M33.0741 61.7314L3.93351 78.6079C2.94811 79.2015 2.94811 80.1038 3.93351 80.6737L37.3363 99.9722C37.8882 100.252 38.4983 100.398 39.1171 100.398C39.736 100.398 40.3461 100.252 40.898 99.9722L70.0386 83.0956C71.024 82.502 71.024 81.5997 70.0386 81.0299L36.6358 61.7314C36.0837 61.4523 35.4737 61.3069 34.855 61.3069C34.2363 61.3069 33.6263 61.4523 33.0741 61.7314Z" fill="black"/>
<path d="M44.9702 89.8984C43.8413 89.9846 42.7092 89.7802 41.6816 89.3048L12.5469 72.5233C10.7661 71.6388 8.80716 69.3356 8.6825 67.1807L7.78613 46.4042L9.41264 46.3092L10.309 67.0858C10.3921 68.5698 11.9414 70.4219 13.2771 71.0927L42.3999 87.8564C43.1831 88.1842 44.0309 88.3289 44.8785 88.2795C45.7262 88.2301 46.5514 87.988 47.2913 87.5714L66.7381 76.3521C67.2071 76.0494 67.4742 75.6813 67.4564 75.3786C67.4386 75.0758 67.1477 74.785 66.655 74.5119L35.4546 56.4244C33.6737 55.5399 31.7267 53.2367 31.602 51.0819L31.1687 39.5657L32.7892 39.4767L33.2285 50.9869C33.3116 52.4709 34.855 54.3289 36.1966 54.9938L67.3911 73.105C67.849 73.2878 68.2488 73.5913 68.5478 73.9833C68.8467 74.3754 69.0337 74.8412 69.0889 75.3311C69.0855 75.8274 68.9502 76.3139 68.6967 76.7405C68.4432 77.1672 68.0807 77.5187 67.6464 77.759L48.2114 88.9546C47.23 89.5423 46.1137 89.8674 44.9702 89.8984Z" fill="#455A64"/>
<path d="M41.6875 89.3051L41.741 89.3347C39.8414 91.7982 36.7486 92.4987 36.0541 92.1782C35.4902 91.917 35.1637 91.2521 35.5851 90.8544C35.781 90.6704 36.1194 90.4804 36.44 90.2133C37.3719 89.4416 37.6747 88.1 37.7637 87.0493L41.6875 89.3051Z" fill="#E0E0E0"/>
<path d="M39.7346 93.1099C39.6826 92.0297 39.3766 90.977 38.8412 90.0373C38.3059 89.0977 37.5564 88.2976 36.6537 87.7021C35.7574 87.1797 34.95 87.15 34.3802 87.5299L32.2728 88.7171L36.6834 96.3273L38.7729 95.1401C39.1039 94.9224 39.3687 94.6178 39.5383 94.2598C39.7079 93.9017 39.7758 93.504 39.7346 93.1099Z" fill="#37474F"/>
<path d="M34.4691 88.9488C35.3721 89.5436 36.1214 90.3436 36.6558 91.2836C37.1903 92.2235 37.4946 93.2766 37.544 94.3567C37.544 96.3393 36.1372 97.1348 34.4216 96.1375C33.5206 95.5406 32.7728 94.7401 32.2386 93.8006C31.7045 92.8612 31.3989 91.8091 31.3467 90.7297C31.3586 88.7411 32.7595 87.9456 34.4691 88.9488Z" fill="#455A64"/>
<path d="M33.4006 91.9228C33.4006 91.1451 33.8755 90.7949 34.4573 91.1333C34.7757 91.3655 35.0355 91.6689 35.2159 92.0193C35.3962 92.3697 35.4922 92.7575 35.4961 93.1516C35.4961 93.9292 35.0153 94.2794 34.4395 93.9411C34.1196 93.7102 33.8588 93.4071 33.6783 93.0563C33.4978 92.7056 33.4027 92.3172 33.4006 91.9228Z" fill="#263238"/>
<path d="M36.2975 86.2062C36.2975 86.2062 36.5052 89.8688 34.8253 91.2698C34.5107 91.531 34.1664 91.7209 33.9705 91.905C33.5431 92.3027 33.8814 92.9675 34.4394 93.2287C35.2527 93.6086 39.4199 92.5342 41.0464 88.9369L36.2975 86.2062Z" fill="#F5F5F5"/>
<path d="M34.5225 92.1424C34.615 92.1966 34.6936 92.2714 34.7523 92.361C34.811 92.4506 34.8481 92.5525 34.8609 92.6589C34.8609 92.8607 34.7362 92.9438 34.5641 92.8548C34.4703 92.8017 34.3903 92.7273 34.3304 92.6376C34.2706 92.5478 34.2328 92.4454 34.2198 92.3383C34.2139 92.1424 34.3445 92.0534 34.5225 92.1424Z" fill="#263238"/>
<path d="M18.6552 76.0554L18.7086 76.0851C16.8091 78.5486 13.7223 79.2491 13.0218 78.9226C12.4638 78.6673 12.1314 77.9965 12.5588 77.5988C12.7547 77.4148 13.0931 77.2308 13.4136 76.9636C14.3396 76.1919 14.6483 74.8444 14.7374 73.7997L18.6552 76.0554Z" fill="#E0E0E0"/>
<path d="M16.7201 79.8605C16.6693 78.7807 16.3643 77.7282 15.83 76.7885C15.2957 75.8488 14.5471 75.0485 13.6452 74.4526C12.7488 73.9243 11.9415 73.9006 11.3657 74.2746L9.26428 75.4618L13.6748 83.072L15.7644 81.8847C16.0938 81.6672 16.3572 81.3634 16.5257 81.0064C16.6943 80.6495 16.7615 80.2531 16.7201 79.8605Z" fill="#37474F"/>
<path d="M11.4606 75.6933C12.3615 76.2902 13.1093 77.0907 13.6435 78.0302C14.1777 78.9697 14.4833 80.0217 14.5355 81.1012C14.5355 83.0838 13.1286 83.8793 11.4131 82.882C10.5121 82.2852 9.76429 81.4846 9.2301 80.5451C8.69591 79.6057 8.39035 78.5536 8.33813 77.4742C8.35001 75.4856 9.75095 74.6901 11.4606 75.6933Z" fill="#455A64"/>
<path d="M10.3861 78.6732C10.3861 77.8955 10.8669 77.5394 11.4487 77.8837C11.7675 78.1155 12.0275 78.4189 12.2079 78.7694C12.3883 79.1199 12.4841 79.5078 12.4875 79.902C12.4875 80.6737 12.0067 81.0298 11.4309 80.6915C11.1106 80.4606 10.8492 80.1576 10.6677 79.807C10.4862 79.4563 10.3898 79.068 10.3861 78.6732Z" fill="#263238"/>
<path d="M13.3126 72.9568C13.3126 72.9568 13.5144 76.6194 11.8404 78.0144C11.5199 78.2815 11.1815 78.4715 10.9856 78.6555C10.5582 79.0473 10.8966 79.7181 11.4546 79.9793C12.2678 80.3532 16.435 79.2847 18.0556 75.6874L13.3126 72.9568Z" fill="#F5F5F5"/>
<path d="M11.5319 78.8929C11.6243 78.9471 11.7029 79.0219 11.7616 79.1115C11.8203 79.201 11.8575 79.303 11.8703 79.4093C11.8703 79.6052 11.7456 79.6943 11.5675 79.6052C11.4751 79.5511 11.3965 79.4763 11.3378 79.3867C11.2791 79.2971 11.2419 79.1951 11.2292 79.0888C11.1995 78.8869 11.336 78.8038 11.5319 78.8929Z" fill="#263238"/>
<path d="M64.7436 73.4256C62.8381 75.8831 59.7513 76.5895 59.0567 76.263C58.4987 76.0078 58.1663 75.337 58.5937 74.9393C58.7896 74.7612 59.128 74.5712 59.4426 74.3041C60.3746 73.5324 60.6832 72.1849 60.7663 71.1401L64.4527 73.2594L64.6901 73.3959L64.7436 73.4256Z" fill="#E0E0E0"/>
<path d="M62.7371 77.2011C62.6852 76.1209 62.3791 75.0682 61.8438 74.1286C61.3085 73.1889 60.559 72.3888 59.6563 71.7933C58.7599 71.2709 57.9526 71.2412 57.3827 71.6212L55.2754 72.8084L59.6919 80.4185L61.7755 79.2313C62.106 79.0131 62.3704 78.7085 62.54 78.3506C62.7095 77.9927 62.7777 77.5951 62.7371 77.2011Z" fill="#37474F"/>
<path d="M57.4718 73.0339C58.3747 73.6287 59.1241 74.4288 59.6585 75.3687C60.193 76.3086 60.4973 77.3617 60.5467 78.4418C60.5467 80.4245 59.1398 81.2199 57.4243 80.2226C56.5226 79.6252 55.7743 78.8237 55.24 77.8831C54.7058 76.9425 54.4007 75.8893 54.3494 74.8088C54.3612 72.8262 55.7622 72.0307 57.4718 73.0339Z" fill="#455A64"/>
<path d="M56.4033 76.0138C56.4033 75.2362 56.8782 74.886 57.46 75.2243C57.7788 75.4562 58.0388 75.7595 58.2192 76.11C58.3996 76.4605 58.4953 76.8484 58.4988 77.2426C58.4988 78.0203 58.018 78.3705 57.4421 78.0321C57.123 77.8006 56.8627 77.4973 56.6823 77.1467C56.5018 76.7962 56.4063 76.4081 56.4033 76.0138Z" fill="#263238"/>
<path d="M59.3002 70.2973C59.3002 70.2973 59.5079 73.9599 57.828 75.3608C57.5134 75.622 57.1691 75.812 56.9732 75.996C56.5458 76.3937 56.8841 77.0586 57.4421 77.3198C58.2554 77.6997 62.4226 76.6253 64.0491 73.0279L59.3002 70.2973Z" fill="#F5F5F5"/>
<path d="M57.5252 76.2334C57.6176 76.2876 57.6962 76.3624 57.7549 76.452C57.8136 76.5416 57.8508 76.6436 57.8635 76.7499C57.8635 76.9458 57.7389 77.0348 57.5667 76.9458C57.4729 76.8927 57.3929 76.8183 57.3331 76.7286C57.2733 76.6389 57.2354 76.5364 57.2224 76.4294C57.2402 76.2335 57.3471 76.1444 57.5252 76.2334Z" fill="#263238"/>
<path d="M41.7409 60.0811L41.7944 60.1108C39.8948 62.5743 36.802 63.2748 36.1075 62.9542C35.5495 62.693 35.2171 62.0282 35.6445 61.6305C35.8404 61.4464 36.1787 61.2565 36.4993 60.9893C37.4253 60.2176 37.734 58.8761 37.8231 57.8254L41.7409 60.0811Z" fill="#E0E0E0"/>
<path d="M39.788 63.8864C39.7372 62.8066 39.4322 61.754 38.8979 60.8143C38.3636 59.8746 37.615 59.0744 36.713 58.4785C35.8167 57.9502 35.0034 57.9265 34.4335 58.3004L32.3322 59.4877L36.7427 67.0978L38.8322 65.9106C39.1626 65.6941 39.4268 65.3904 39.5954 65.0332C39.7641 64.676 39.8307 64.2791 39.788 63.8864Z" fill="#37474F"/>
<path d="M34.5285 59.7308C35.4302 60.327 36.1785 61.1274 36.7128 62.067C37.247 63.0066 37.5522 64.059 37.6035 65.1387C37.6035 67.1214 36.1907 67.9168 34.4811 66.9195C33.5801 66.3227 32.8323 65.5221 32.2981 64.5827C31.7639 63.6432 31.4583 62.5912 31.4061 61.5117C31.418 59.5171 32.813 58.7217 34.5285 59.7308Z" fill="#455A64"/>
<path d="M33.4541 62.699C33.4541 61.9273 33.9349 61.5711 34.5107 61.9095C34.8299 62.1414 35.0906 62.4446 35.272 62.795C35.4534 63.1454 35.5505 63.5333 35.5555 63.9278C35.5555 64.7054 35.0747 65.0556 34.4929 64.7173C34.1741 64.4854 33.9141 64.1821 33.7337 63.8316C33.5533 63.4811 33.4575 63.0932 33.4541 62.699Z" fill="#263238"/>
<path d="M36.357 56.9825C36.357 56.9825 36.5588 60.6451 34.8848 62.046C34.5642 62.3072 34.2259 62.4972 34.03 62.6812C33.6026 63.0789 33.935 63.7438 34.493 64.005C35.3063 64.3849 39.4794 63.3104 41.1 59.7131L36.357 56.9825Z" fill="#F5F5F5"/>
<path d="M34.576 62.9187C34.6699 62.971 34.7498 63.0453 34.8087 63.1353C34.8677 63.2252 34.9039 63.3281 34.9143 63.4351C34.9143 63.637 34.7956 63.7201 34.6175 63.631C34.5245 63.5776 34.4454 63.503 34.3866 63.4132C34.3278 63.3235 34.291 63.2212 34.2792 63.1146C34.2673 62.9187 34.4038 62.8296 34.576 62.9187Z" fill="#263238"/>
<path d="M31.3348 8.4068L30.4682 8.90545L29.7974 6.18668C29.2101 4.30089 27.987 2.67712 26.3366 1.59209L25.5411 1.12907C25.3051 1.01501 25.0464 0.955758 24.7843 0.955758C24.5222 0.955758 24.2634 1.01501 24.0274 1.12907L18.6255 4.23368C18.5711 4.26536 18.5109 4.28589 18.4484 4.29408C18.386 4.30227 18.3225 4.29794 18.2617 4.28137C18.201 4.2648 18.1441 4.2363 18.0945 4.19754C18.0448 4.15878 18.0034 4.11054 17.9725 4.0556C17.9097 3.94598 17.8925 3.816 17.9247 3.69381C17.9569 3.57161 18.036 3.467 18.1447 3.40262L23.5466 0.298013C23.9287 0.102153 24.3519 0 24.7813 0C25.2107 0 25.6339 0.102153 26.016 0.298013L26.8174 0.755091C28.6895 1.9775 30.0738 3.81759 30.7293 5.95517L31.3348 8.4068Z" fill="#37474F"/>
<path d="M7.02043 12.3723L5.45923 9.66543L18.5188 2.14432C18.6469 2.06263 18.797 2.02224 18.9488 2.02861C19.1006 2.03498 19.2468 2.0878 19.3677 2.17994C19.6877 2.39072 19.9541 2.67325 20.1458 3.00507C20.3375 3.33689 20.4491 3.70885 20.4718 4.09138C20.4907 4.24195 20.4633 4.3947 20.3933 4.52936C20.3233 4.66401 20.2141 4.77418 20.08 4.84527L7.02043 12.3723Z" fill="#BA68C8"/>
<path opacity="0.25" d="M7.02043 12.3723L5.45923 9.66543L18.5188 2.14432C18.6469 2.06263 18.797 2.02224 18.9488 2.02861C19.1006 2.03498 19.2468 2.0878 19.3677 2.17994C19.6877 2.39072 19.9541 2.67325 20.1458 3.00507C20.3375 3.33689 20.4491 3.70885 20.4718 4.09138C20.4907 4.24195 20.4633 4.3947 20.3933 4.52936C20.3233 4.66401 20.2141 4.77418 20.08 4.84527L7.02043 12.3723Z" fill="black"/>
<path d="M5.45919 9.66522C5.86878 9.42777 6.55144 9.8433 6.97884 10.5913C7.40625 11.3392 7.42999 12.1347 7.02039 12.3721C6.6108 12.6095 5.92814 12.194 5.4948 11.4461C5.06146 10.6981 5.04959 9.90266 5.45919 9.66522Z" fill="#BA68C8"/>
<path d="M6.44457 22.9267L5.57789 23.4253L4.90711 20.7066C4.32203 18.8196 3.09844 17.1952 1.44632 16.112L0.65088 15.6489C0.457536 15.5652 0.292909 15.4267 0.177262 15.2506C0.0616161 15.0744 0 14.8683 0 14.6576C0 14.4469 0.0616161 14.2408 0.177262 14.0646C0.292909 13.8885 0.457536 13.75 0.65088 13.6663L5.80347 10.6982C5.93407 10.621 6.14183 10.7516 6.27242 10.9772C6.40302 11.2028 6.41489 11.458 6.27242 11.5293L1.11984 14.4973C0.977374 14.5745 0.947688 14.6457 0.947688 14.6576C0.947688 14.6695 0.977374 14.7348 1.11984 14.8179L1.91528 15.2809C3.78978 16.4981 5.17499 18.3373 5.82721 20.475L6.44457 22.9267Z" fill="#37474F"/>
<path d="M34.1842 40.0941L8.16602 55.1185L46.1931 77.0764L72.2172 62.046L34.1842 40.0941Z" fill="#BA68C8"/>
<path opacity="0.4" d="M34.1842 40.0941L8.16602 55.1185L46.1931 77.0764L72.2172 62.046L34.1842 40.0941Z" fill="black"/>
<path d="M5.57788 23.4492L31.3349 8.401L34.1842 40.0942L8.16604 55.1186L5.57788 23.4492Z" fill="#BA68C8"/>
<path opacity="0.2" d="M5.57788 23.4492L31.3349 8.401L34.1842 40.0942L8.16604 55.1186L5.57788 23.4492Z" fill="black"/>
<path d="M31.3348 8.401L34.1842 40.0942L72.2172 62.058L78.2186 35.4818L31.3348 8.401ZM44.6319 38.8713C44.0824 39.0432 43.4873 38.9912 42.9759 38.7266C42.4646 38.462 42.0783 38.0063 41.9012 37.4585L35.6207 21.1459C35.4878 20.8901 35.4103 20.6091 35.3935 20.3213C35.3766 20.0334 35.4207 19.7453 35.5229 19.4757C35.6251 19.2061 35.783 18.9611 35.9864 18.7567C36.1898 18.5524 36.434 18.3933 36.7032 18.2899C36.9723 18.1864 37.2602 18.141 37.5481 18.1565C37.836 18.172 38.1174 18.2481 38.3738 18.3799C38.6303 18.5116 38.856 18.696 39.0363 18.9211C39.2166 19.1461 39.3473 19.4066 39.4199 19.6856L45.7004 35.9863C45.9404 36.5107 45.9627 37.1089 45.7624 37.6497C45.5621 38.1905 45.1555 38.6298 44.6319 38.8713ZM56.5042 44.4572C55.9555 44.6305 55.3605 44.5791 54.8497 44.3143C54.3389 44.0494 53.954 43.5927 53.7795 43.0444L47.4931 26.7378C47.3552 26.48 47.2739 26.1958 47.2547 25.9041C47.2355 25.6124 47.2787 25.32 47.3816 25.0463C47.4844 24.7727 47.6445 24.5241 47.8512 24.3173C48.0578 24.1105 48.3062 23.9502 48.5797 23.8471C48.8532 23.744 49.1456 23.7005 49.4374 23.7194C49.7291 23.7384 50.0134 23.8194 50.2713 23.9571C50.5292 24.0947 50.7547 24.2858 50.9328 24.5176C51.1109 24.7494 51.2375 25.0166 51.3041 25.3013L57.5905 41.6138C57.818 42.1356 57.8316 42.7258 57.6285 43.2576C57.4253 43.7893 57.0216 44.2201 56.5042 44.4572ZM68.3765 50.0432C67.8286 50.2151 67.2349 50.1638 66.7247 49.9003C66.2145 49.6368 65.8289 49.1826 65.6518 48.6363L59.3713 32.3237C59.2311 32.067 59.1473 31.7834 59.1256 31.4917C59.1038 31.2 59.1447 30.907 59.2453 30.6324C59.3459 30.3577 59.5041 30.1077 59.7091 29.8991C59.9142 29.6906 60.1614 29.5282 60.4343 29.4229C60.7072 29.3176 60.9994 29.2717 61.2914 29.2885C61.5834 29.3052 61.8685 29.3842 62.1276 29.52C62.3866 29.6558 62.6137 29.8454 62.7935 30.0761C62.9734 30.3067 63.1019 30.5731 63.1705 30.8575L69.4509 47.1701C69.6885 47.6937 69.7087 48.2901 69.5073 48.8286C69.306 49.3671 68.8993 49.8039 68.3765 50.0432Z" fill="#BA68C8"/>
<path opacity="0.1" d="M31.3348 8.401L34.1842 40.0942L72.2172 62.058L78.2186 35.4818L31.3348 8.401ZM44.6319 38.8713C44.0824 39.0432 43.4873 38.9912 42.9759 38.7266C42.4646 38.462 42.0783 38.0063 41.9012 37.4585L35.6207 21.1459C35.4878 20.8901 35.4103 20.6091 35.3935 20.3213C35.3766 20.0334 35.4207 19.7453 35.5229 19.4757C35.6251 19.2061 35.783 18.9611 35.9864 18.7567C36.1898 18.5524 36.434 18.3933 36.7032 18.2899C36.9723 18.1864 37.2602 18.141 37.5481 18.1565C37.836 18.172 38.1174 18.2481 38.3738 18.3799C38.6303 18.5116 38.856 18.696 39.0363 18.9211C39.2166 19.1461 39.3473 19.4066 39.4199 19.6856L45.7004 35.9863C45.9404 36.5107 45.9627 37.1089 45.7624 37.6497C45.5621 38.1905 45.1555 38.6298 44.6319 38.8713ZM56.5042 44.4572C55.9555 44.6305 55.3605 44.5791 54.8497 44.3143C54.3389 44.0494 53.954 43.5927 53.7795 43.0444L47.4931 26.7378C47.3552 26.48 47.2739 26.1958 47.2547 25.9041C47.2355 25.6124 47.2787 25.32 47.3816 25.0463C47.4844 24.7727 47.6445 24.5241 47.8512 24.3173C48.0578 24.1105 48.3062 23.9502 48.5797 23.8471C48.8532 23.744 49.1456 23.7005 49.4374 23.7194C49.7291 23.7384 50.0134 23.8194 50.2713 23.9571C50.5292 24.0947 50.7547 24.2858 50.9328 24.5176C51.1109 24.7494 51.2375 25.0166 51.3041 25.3013L57.5905 41.6138C57.818 42.1356 57.8316 42.7258 57.6285 43.2576C57.4253 43.7893 57.0216 44.2201 56.5042 44.4572ZM68.3765 50.0432C67.8286 50.2151 67.2349 50.1638 66.7247 49.9003C66.2145 49.6368 65.8289 49.1826 65.6518 48.6363L59.3713 32.3237C59.2311 32.067 59.1473 31.7834 59.1256 31.4917C59.1038 31.2 59.1447 30.907 59.2453 30.6324C59.3459 30.3577 59.5041 30.1077 59.7091 29.8991C59.9142 29.6906 60.1614 29.5282 60.4343 29.4229C60.7072 29.3176 60.9994 29.2717 61.2914 29.2885C61.5834 29.3052 61.8685 29.3842 62.1276 29.52C62.3866 29.6558 62.6137 29.8454 62.7935 30.0761C62.9734 30.3067 63.1019 30.5731 63.1705 30.8575L69.4509 47.1701C69.6885 47.6937 69.7087 48.2901 69.5073 48.8286C69.306 49.3671 68.8993 49.8039 68.3765 50.0432Z" fill="black"/>
<path d="M42.1268 4.19805C41.643 3.94909 41.1012 3.83482 40.5581 3.86719C40.0151 3.89957 39.4907 4.0774 39.04 4.38207C36.5052 5.8483 34.4513 10.0689 34.4513 13.7968V22.5883C34.4513 22.6405 34.4616 22.6922 34.4816 22.7405C34.5016 22.7887 34.5309 22.8326 34.5678 22.8695C34.6047 22.9064 34.6486 22.9357 34.6968 22.9557C34.7451 22.9757 34.7968 22.986 34.849 22.986C34.9013 22.986 34.953 22.9757 35.0012 22.9557C35.0495 22.9357 35.0933 22.9064 35.1303 22.8695C35.1672 22.8326 35.1965 22.7887 35.2165 22.7405C35.2365 22.6922 35.2468 22.6405 35.2468 22.5883V13.7968C35.2468 10.3242 37.1285 6.41224 39.4377 5.0766C39.7667 4.84035 40.154 4.69837 40.5578 4.66594C40.9615 4.63352 41.3665 4.71187 41.729 4.89258C42.6788 5.44464 43.225 6.83964 43.225 8.72734V17.4832C43.2265 17.5892 43.2697 17.6904 43.3453 17.7648C43.4208 17.8392 43.5226 17.8809 43.6286 17.8809C43.7341 17.8809 43.8353 17.839 43.9098 17.7644C43.9844 17.6898 44.0263 17.5887 44.0263 17.4832V8.72734C44.0263 6.54877 43.3318 4.89852 42.1268 4.19805Z" fill="#263238"/>
<path d="M58.4037 52.2099L55.9461 11.8855L50.9835 9.03619L48.6743 46.5943L58.4037 52.2099Z" fill="#BA68C8"/>
<path opacity="0.4" d="M58.4037 52.2099L55.9461 11.8855L50.9835 9.03619L48.6743 46.5943L58.4037 52.2099Z" fill="white"/>
<path d="M27.4883 22.5884L25.1791 60.1465L48.6744 46.5943L50.9836 9.03619L27.4883 22.5884Z" fill="#BA68C8"/>
<path opacity="0.3" d="M27.4883 22.5884L25.1791 60.1465L48.6744 46.5943L50.9836 9.03619L27.4883 22.5884Z" fill="white"/>
<path opacity="0.05" d="M27.4883 22.5884L25.1791 60.1465L48.6744 46.5943L50.9836 9.03619L27.4883 22.5884Z" fill="black"/>
<path d="M27.4883 22.5882L32.4509 25.4435L34.9085 65.7678L25.1791 60.1463L27.4883 22.5882Z" fill="#BA68C8"/>
<path opacity="0.55" d="M27.4883 22.5882L32.4509 25.4435L34.9085 65.7678L25.1791 60.1463L27.4883 22.5882Z" fill="white"/>
<path opacity="0.5" d="M34.9085 65.7679L30.5929 59.3687L30.0467 41.7264L29.6075 58.8048L25.1791 60.1463L34.9085 65.7679Z" fill="#BA68C8"/>
<path d="M55.9461 11.8855L32.4508 25.4437L34.9084 65.768L58.4275 52.2158L55.9461 11.8855ZM39.8235 26.4291C39.3368 26.7081 38.939 26.4766 38.939 25.9126C38.9565 25.606 39.0456 25.3077 39.1992 25.0417C39.3528 24.7758 39.5667 24.5495 39.8235 24.3811C40.3103 24.0962 40.708 24.3336 40.708 24.8976C40.6929 25.2048 40.6048 25.5039 40.451 25.7703C40.2971 26.0366 40.0821 26.2625 39.8235 26.4291ZM48.6031 21.324C48.1104 21.603 47.7186 21.3715 47.7186 20.8075C47.7342 20.5005 47.8225 20.2015 47.9763 19.9352C48.1301 19.6689 48.3449 19.443 48.6031 19.276C49.0899 18.9911 49.4876 19.2226 49.4876 19.7925C49.4715 20.0994 49.383 20.3983 49.2293 20.6645C49.0756 20.9306 48.861 21.1567 48.6031 21.324Z" fill="#BA68C8"/>
<path opacity="0.7" d="M55.9461 11.8855L32.4508 25.4437L34.9084 65.768L58.4275 52.2158L55.9461 11.8855ZM39.8235 26.4291C39.3368 26.7081 38.939 26.4766 38.939 25.9126C38.9565 25.606 39.0456 25.3077 39.1992 25.0417C39.3528 24.7758 39.5667 24.5495 39.8235 24.3811C40.3103 24.0962 40.708 24.3336 40.708 24.8976C40.6929 25.2048 40.6048 25.5039 40.451 25.7703C40.2971 26.0366 40.0821 26.2625 39.8235 26.4291ZM48.6031 21.324C48.1104 21.603 47.7186 21.3715 47.7186 20.8075C47.7342 20.5005 47.8225 20.2015 47.9763 19.9352C48.1301 19.6689 48.3449 19.443 48.6031 19.276C49.0899 18.9911 49.4876 19.2226 49.4876 19.7925C49.4715 20.0994 49.383 20.3983 49.2293 20.6645C49.0756 20.9306 48.861 21.1567 48.6031 21.324Z" fill="white"/>
<path d="M47.1013 7.01796C46.6184 6.76587 46.0761 6.64982 45.5323 6.68223C44.9886 6.71465 44.4639 6.89431 44.0144 7.20198C41.4797 8.66228 39.4258 12.8829 39.4258 16.6108V25.4023C39.4258 25.4545 39.4361 25.5062 39.4561 25.5545C39.4761 25.6027 39.5054 25.6466 39.5423 25.6835C39.5792 25.7204 39.623 25.7497 39.6713 25.7697C39.7196 25.7897 39.7713 25.8 39.8235 25.8C39.8757 25.8 39.9275 25.7897 39.9757 25.7697C40.024 25.7497 40.0678 25.7204 40.1047 25.6835C40.1417 25.6466 40.171 25.6027 40.191 25.5545C40.2109 25.5062 40.2212 25.4545 40.2212 25.4023V16.6108C40.2212 13.1381 42.103 9.22622 44.4122 7.89058C44.7406 7.65546 45.1268 7.51412 45.5294 7.4817C45.932 7.44928 46.3358 7.52701 46.6976 7.70656C47.6533 8.25862 48.1994 9.65956 48.1994 11.5473V20.2972C48.201 20.4032 48.2442 20.5043 48.3197 20.5788C48.3953 20.6532 48.4971 20.6949 48.6031 20.6949C48.6553 20.6949 48.707 20.6846 48.7553 20.6646C48.8035 20.6446 48.8474 20.6153 48.8843 20.5784C48.9213 20.5415 48.9506 20.4976 48.9705 20.4494C48.9905 20.4011 49.0008 20.3494 49.0008 20.2972V11.5473C49.0008 9.36275 48.336 7.71249 47.1013 7.01796Z" fill="#37474F"/>
<path d="M5.5957 23.4492L8.18386 55.1186L46.2109 77.0824L52.2183 50.5002L5.5957 23.4492ZM20.6083 54.6259C20.0596 54.7959 19.466 54.743 18.956 54.4786C18.446 54.2142 18.0607 53.7595 17.8836 53.2131L11.5972 36.9005C11.4654 36.645 11.389 36.3645 11.3728 36.0775C11.3566 35.7904 11.4011 35.5032 11.5032 35.2345C11.6054 34.9657 11.763 34.7215 11.9658 34.5177C12.1685 34.3139 12.4119 34.1551 12.6802 34.0516C12.9484 33.9481 13.2354 33.9022 13.5225 33.9169C13.8096 33.9316 14.0904 34.0067 14.3466 34.1371C14.6028 34.2675 14.8287 34.4504 15.0096 34.6739C15.1904 34.8974 15.3222 35.1565 15.3963 35.4343L21.6827 51.7468C21.9193 52.2735 21.9372 52.8726 21.7324 53.4124C21.5276 53.9522 21.1169 54.3887 20.5904 54.6259H20.6083ZM32.4806 60.2118C31.9319 60.3835 31.3376 60.3313 30.8272 60.0667C30.3168 59.802 29.9317 59.3463 29.7559 58.799L23.4576 42.5161C23.3246 42.2603 23.2472 41.9793 23.2303 41.6914C23.2135 41.4036 23.2576 41.1155 23.3597 40.8459C23.4619 40.5763 23.6199 40.3313 23.8233 40.1269C24.0267 39.9226 24.2709 39.7635 24.54 39.66C24.8091 39.5566 25.0971 39.5111 25.385 39.5266C25.6729 39.5421 25.9543 39.6183 26.2107 39.75C26.4672 39.8818 26.6929 40.0662 26.8732 40.2912C27.0534 40.5162 27.1841 40.7768 27.2567 41.0558L33.5431 57.3565C33.7704 57.8787 33.7853 58.4689 33.5847 59.002C33.3841 59.535 32.9838 59.9689 32.4687 60.2118H32.4806ZM44.3529 65.7977C43.8042 65.971 43.2092 65.9196 42.6984 65.6548C42.1876 65.3899 41.8027 64.9332 41.6282 64.3849L35.3418 48.0723C35.2088 47.8165 35.1314 47.5355 35.1145 47.2477C35.0977 46.9599 35.1418 46.6717 35.2439 46.4021C35.3461 46.1325 35.5041 45.8875 35.7075 45.6832C35.9108 45.4788 36.1551 45.3197 36.4242 45.2163C36.6933 45.1128 36.9813 45.0674 37.2692 45.0829C37.5571 45.0984 37.8384 45.1745 38.0949 45.3063C38.3513 45.438 38.5771 45.6225 38.7574 45.8475C38.9376 46.0725 39.0683 46.333 39.1409 46.6121L45.4273 62.9246C45.6641 63.4497 45.6827 64.0473 45.479 64.5861C45.2752 65.1248 44.8659 65.5606 44.341 65.7977H44.3529Z" fill="#BA68C8"/>
<path d="M52.2005 50.4943L78.2187 35.4698L72.2172 62.052L46.1931 77.0764L52.2005 50.4943Z" fill="#BA68C8"/>
<path opacity="0.2" d="M52.2005 50.4943L78.2187 35.4698L72.2172 62.052L46.1931 77.0764L52.2005 50.4943Z" fill="black"/>
</svg>
