<svg width="102" height="72" viewBox="0 0 102 72" fill="none" xmlns="http://www.w3.org/2000/svg">
<path d="M9.96618 71.2954H0C0 57.4235 5.61581 43.2506 15.4041 32.3747C25.7055 20.9447 39.0781 14.6517 53.0253 14.6517C81.5284 14.6517 101.44 35.4596 101.44 65.2692H91.4946C91.4946 40.966 76.0426 24.6384 53.0458 24.6384C30.5005 24.6179 9.96618 46.8622 9.96618 71.2954Z" fill="#BA68C8"/>
<path d="M15.4315 68.5252C17.0253 68.5252 18.3181 68.6825 18.3112 68.8261C18.3044 68.9698 17.0184 69.0792 15.4315 69.0792C13.8446 69.0792 12.5449 68.9493 12.5449 68.7783C12.5449 68.6073 13.8446 68.4978 15.4315 68.5252Z" fill="#263238"/>
<path d="M22.3127 46.6777C23.6808 47.5532 24.6042 48.4493 24.4537 48.6887C24.3032 48.9281 23.0857 48.4424 21.7176 47.6148C20.3496 46.7871 19.4398 45.8774 19.5835 45.6038C19.7271 45.3301 20.9789 45.809 22.3127 46.6777Z" fill="#263238"/>
<path d="M39.55 31.6224C40.1998 33.0793 40.5213 34.3584 40.234 34.4679C39.9467 34.5773 39.2148 33.5171 38.5171 32.0875C37.8194 30.6579 37.4979 29.3514 37.8331 29.242C38.1683 29.1325 38.907 30.1449 39.55 31.6224Z" fill="#263238"/>
<path d="M62.2596 29.8302C61.8629 31.3761 61.3225 32.5663 61.0558 32.5116C60.789 32.4568 60.8437 31.1435 61.1857 29.5771C61.5277 28.0107 62.0613 26.841 62.3896 26.9026C62.7179 26.9642 62.6564 28.2912 62.2596 29.8302Z" fill="#263238"/>
<path d="M80.8102 42.8676C79.4832 43.7431 78.2861 44.2766 78.1288 44.0577C77.9715 43.8389 78.8949 42.8949 80.1809 41.9578C81.4668 41.0207 82.6707 40.494 82.8622 40.7676C83.0537 41.0412 82.1372 41.9852 80.8102 42.8676Z" fill="#263238"/>
<path d="M86.9185 64.3458C85.3316 64.3458 84.0388 64.2227 84.0388 64.0859C84.0388 63.9491 85.3248 63.8123 86.9185 63.7918C88.5123 63.7713 89.7983 63.8875 89.8051 64.0517C89.8119 64.2159 88.526 64.3458 86.9185 64.3458Z" fill="#263238"/>
<path d="M50.3234 67.3144C49.8269 67.3178 49.3442 67.1513 48.9554 66.8424L32.2037 53.846C31.7393 53.4832 31.438 52.9508 31.3662 52.3658C31.2944 51.7809 31.4578 51.1913 31.8207 50.7269C32.1835 50.2625 32.7159 49.9612 33.3009 49.8894C33.8858 49.8176 34.4754 49.981 34.9398 50.3439L50.2208 62.1911L71.3229 42.8128C71.7537 42.4128 72.3258 42.2003 72.9133 42.2221C73.5009 42.2439 74.0556 42.4982 74.4557 42.9291C74.8557 43.3599 75.0682 43.9321 75.0463 44.5196C75.0245 45.1071 74.7702 45.6619 74.3394 46.0619L51.8556 66.7193C51.4393 67.1056 50.8913 67.3184 50.3234 67.3144Z" fill="#BA68C8"/>
<path d="M61.6849 0H42.4776C42.1792 0 41.9373 0.241935 41.9373 0.540377V7.49687C41.9373 7.79531 42.1792 8.03724 42.4776 8.03724H61.6849C61.9834 8.03724 62.2253 7.79531 62.2253 7.49687V0.540377C62.2253 0.241935 61.9834 0 61.6849 0Z" fill="#BA68C8"/>
<path d="M57.321 4.02197H46.835V13.5299H57.321V4.02197Z" fill="#BA68C8"/>
<path d="M8.79669 24.5972L0.919825 34.3522C0.613668 34.7313 0.672839 35.2869 1.05199 35.593L6.4377 39.9419C6.81685 40.248 7.37241 40.1888 7.67857 39.8097L15.5554 30.0547C15.8616 29.6756 15.8024 29.12 15.4233 28.8139L10.0376 24.4651C9.6584 24.1589 9.10285 24.2181 8.79669 24.5972Z" fill="#BA68C8"/>
<path d="M61.685 8.03724C61.685 8.15352 57.3826 8.24245 52.1088 8.24245C46.835 8.24245 42.5325 8.15352 42.5325 8.03724C42.5325 7.92096 46.8281 7.83203 52.1088 7.83203C57.3894 7.83203 61.685 7.9278 61.685 8.03724Z" fill="#263238"/>
<path d="M8.61877 38.1342C8.50933 38.2573 7.0592 37.1492 5.26707 35.8017C3.47493 34.4541 2.01797 33.3597 2.10689 33.2229C2.19582 33.0861 3.80326 33.9753 5.61592 35.3365C7.42857 36.6977 8.72137 38.0179 8.61877 38.1342Z" fill="#263238"/>
<path d="M10.2877 35.6785C10.1783 35.8016 8.72814 34.6935 6.936 33.346C5.14387 31.9984 3.68006 30.904 3.76899 30.7672C3.85791 30.6304 5.4722 31.5196 7.28485 32.8877C9.09751 34.2557 10.3903 35.5622 10.2877 35.6785Z" fill="#263238"/>
<path d="M12.3329 33.6196C12.2303 33.7427 10.7801 32.6346 8.98802 31.2871C7.19588 29.9395 5.75944 28.8451 5.821 28.7083C5.88256 28.5715 7.52421 29.4607 9.33003 30.8288C11.1358 32.1968 12.4423 33.5033 12.3329 33.6196Z" fill="#263238"/>
<path d="M14.3166 31.1641C14.214 31.2872 12.7571 30.1791 10.9649 28.8316C9.1728 27.484 7.71583 26.3896 7.81159 26.2528C7.90736 26.116 9.5148 27.0052 11.3206 28.3733C13.1264 29.7413 14.4192 31.0478 14.3166 31.1641Z" fill="#263238"/>
<path d="M100.296 27.6804L91.8172 18.4437C91.4876 18.0847 90.9294 18.0609 90.5704 18.3904L85.4709 23.0715C85.1118 23.401 85.088 23.9592 85.4175 24.3182L93.8962 33.5549C94.2257 33.9139 94.7839 33.9378 95.1429 33.6082L100.242 28.9271C100.602 28.5976 100.625 28.0394 100.296 27.6804Z" fill="#BA68C8"/>
<path d="M86.9322 25.5071C86.8296 25.384 88.1361 24.139 89.7367 22.5384C91.3373 20.9378 92.6301 19.6861 92.7532 19.8024C92.8763 19.9186 91.7614 21.3756 90.1402 22.9625C88.5191 24.5495 87.0279 25.6234 86.9322 25.5071Z" fill="#263238"/>
<path d="M89.1143 27.5182C89.0048 27.3951 90.3182 26.1502 91.9119 24.5495C93.5057 22.9489 94.8122 21.6972 94.9353 21.8135C95.0584 21.9297 93.9366 23.3867 92.3223 24.9736C90.7081 26.5606 89.2101 27.6345 89.1143 27.5182Z" fill="#263238"/>
<path d="M90.8448 29.8507C90.7353 29.7275 92.0486 28.4826 93.6424 26.882C95.2362 25.2814 96.5426 24.0296 96.6658 24.1459C96.7889 24.2622 95.6671 25.7123 94.046 27.2993C92.4249 28.8862 90.9405 29.9669 90.8448 29.8507Z" fill="#263238"/>
<path d="M92.979 32.1968C92.8696 32.0737 94.1829 30.8288 95.7767 29.2282C97.3705 27.6276 98.6769 26.3758 98.8001 26.4921C98.9232 26.6084 97.8014 28.0654 96.1803 29.6523C94.5591 31.2392 93.0748 32.2926 92.979 32.1968Z" fill="#263238"/>
<path d="M44.6323 8.03034C44.4749 8.03034 44.345 6.25188 44.345 4.06986C44.345 1.88783 44.4749 0.102539 44.6323 0.102539C44.7896 0.102539 44.9264 1.88099 44.9264 4.06986C44.9264 6.25872 44.7964 8.03034 44.6323 8.03034Z" fill="#263238"/>
<path d="M48.3945 8.03034C48.2371 8.03034 48.1072 6.25188 48.1072 4.06986C48.1072 1.88783 48.2371 0.102539 48.3945 0.102539C48.5518 0.102539 48.6818 1.88099 48.6818 4.06986C48.6818 6.25872 48.5518 8.03034 48.3945 8.03034Z" fill="#263238"/>
<path d="M52.1498 8.03034C51.9925 8.03034 51.8625 6.25188 51.8625 4.06986C51.8625 1.88783 51.9925 0.102539 52.1498 0.102539C52.3072 0.102539 52.4371 1.88099 52.4371 4.06986C52.4371 6.25872 52.314 8.03034 52.1498 8.03034Z" fill="#263238"/>
<path d="M55.9118 8.03034C55.7476 8.03034 55.6245 6.25188 55.6245 4.06986C55.6245 1.88783 55.7476 0.102539 55.9118 0.102539C56.076 0.102539 56.1991 1.88099 56.1991 4.06986C56.1991 6.25872 56.0691 8.03034 55.9118 8.03034Z" fill="#263238"/>
<path d="M59.6672 8.03034C59.5098 8.03034 59.3799 6.25188 59.3799 4.06986C59.3799 1.88783 59.5098 0.102539 59.6672 0.102539C59.8245 0.102539 59.9545 1.88099 59.9545 4.06986C59.9545 6.25872 59.7971 8.03034 59.6672 8.03034Z" fill="#263238"/>
<path d="M54.3891 67.887C56.3498 65.9263 56.3498 62.7474 54.3891 60.7867C52.4284 58.826 49.2494 58.826 47.2887 60.7867C45.328 62.7474 45.328 65.9263 47.2887 67.887C49.2494 69.8477 52.4284 69.8477 54.3891 67.887Z" fill="#BA68C8"/>
<path d="M55.8572 64.3459C55.8093 64.3459 55.8161 63.9013 55.6041 63.142C55.2999 62.0825 54.6527 61.1539 53.7641 60.5017C53.0517 59.9727 52.2064 59.6521 51.3224 59.5756C50.4384 59.4991 49.5506 59.6697 48.758 60.0684C47.9653 60.4671 47.299 61.0782 46.8335 61.8335C46.3679 62.5888 46.1214 63.4586 46.1214 64.3459C46.1214 65.2332 46.3679 66.103 46.8335 66.8583C47.299 67.6136 47.9653 68.2247 48.758 68.6234C49.5506 69.0221 50.4384 69.1927 51.3224 69.1162C52.2064 69.0397 53.0517 68.719 53.7641 68.1901C54.6512 67.5364 55.298 66.6084 55.6041 65.5498C55.8161 64.7905 55.8093 64.3459 55.8572 64.3459C55.905 64.3459 55.8572 64.4553 55.8572 64.6674C55.868 64.9804 55.8358 65.2934 55.7614 65.5976C55.5158 66.7396 54.8766 67.759 53.9556 68.4774C53.2674 69.0177 52.4536 69.3751 51.5901 69.5162C50.7266 69.6573 49.8414 69.5776 49.0169 69.2845C47.9963 68.9228 47.1128 68.2537 46.4879 67.3694C45.8631 66.485 45.5276 65.4287 45.5276 64.3459C45.5276 63.263 45.8631 62.2068 46.4879 61.3224C47.1128 60.438 47.9963 59.769 49.0169 59.4073C49.8411 59.1151 50.7256 59.0353 51.5887 59.1752C52.4519 59.3151 53.2659 59.6701 53.9556 60.2076C54.8762 60.9293 55.5151 61.9505 55.7614 63.0941C55.8358 63.3984 55.868 63.7114 55.8572 64.0244C55.8914 64.2228 55.8777 64.3459 55.8572 64.3459Z" fill="#263238"/>
</svg>
