<svg width="101" height="76" viewBox="0 0 101 76" fill="none" xmlns="http://www.w3.org/2000/svg">
<path d="M94.9971 40.8676C92.2816 36.6334 88.5299 33.1627 84.0976 30.7842C66.2961 20.5072 37.4152 20.5072 19.5998 30.7842C15.1683 33.1585 11.4202 36.6304 8.71417 40.8676H6.23828V50.1764C6.55641 56.6636 10.9964 63.0815 19.5583 68.0333C37.3737 78.3103 66.2546 78.3103 84.0562 68.0333C92.6319 63.0815 97.0996 56.6636 97.4177 50.1764V40.8676H94.9971Z" fill="#BA68C8"/>
<path opacity="0.25" d="M94.9971 40.8676C92.2816 36.6334 88.5299 33.1627 84.0976 30.7842C66.2961 20.5072 37.4152 20.5072 19.5998 30.7842C15.1683 33.1585 11.4202 36.6304 8.71417 40.8676H6.23828V50.1764C6.55641 56.6636 10.9964 63.0815 19.5583 68.0333C37.3737 78.3103 66.2546 78.3103 84.0562 68.0333C92.6319 63.0815 97.0996 56.6636 97.4177 50.1764V40.8676H94.9971Z" fill="black"/>
<path opacity="0.1" d="M51.8557 23.0801C40.1816 23.0801 28.5075 25.639 19.5998 30.7845C15.1657 33.1553 11.4168 36.6279 8.71417 40.8679H6.23828V50.1767C6.55641 56.6639 10.9964 63.0818 19.5583 68.0336C28.466 73.1652 40.1401 75.7379 51.8142 75.7379L51.8557 23.0801Z" fill="black"/>
<path opacity="0.1" d="M26.9445 27.3543C24.4057 28.2928 21.9491 29.4402 19.5998 30.7846C15.1657 33.1554 11.4168 36.628 8.71417 40.868H6.23828V50.1768C6.55641 56.6639 10.9964 63.0819 19.5583 68.0337C21.9104 69.3725 24.3666 70.5197 26.903 71.464L26.9445 27.3543Z" fill="black"/>
<path opacity="0.5" d="M76.7666 27.3543C79.301 28.2928 81.753 29.4402 84.0975 30.7846C88.5327 33.159 92.2852 36.6306 94.997 40.868H97.459V50.1768C97.1271 56.6639 92.6732 63.0819 84.0975 68.0337C81.7502 69.3725 79.2986 70.5197 76.7666 71.464V27.3543Z" fill="#BA68C8"/>
<path d="M19.5995 22.2502C1.78413 32.5273 1.79796 49.2084 19.5995 59.4855C35.188 68.49 59.2415 69.6104 76.9463 62.8604L77.6517 62.5838C79.8721 61.7077 82.0263 60.6722 84.0973 59.4855C98.9527 50.9097 101.429 37.894 91.4973 27.8382C89.2906 25.6697 86.8015 23.8087 84.0973 22.3055C66.2958 11.9593 37.4149 11.9593 19.5995 22.2502Z" fill="#BA68C8"/>
<path opacity="0.2" d="M19.5995 22.2502C1.78413 32.5273 1.79796 49.2084 19.5995 59.4855C35.188 68.49 59.2415 69.6104 76.9463 62.8604L77.6517 62.5838C79.8721 61.7077 82.0263 60.6722 84.0973 59.4855C98.9527 50.9097 101.429 37.894 91.4973 27.8382C89.2906 25.6697 86.8015 23.8087 84.0973 22.3055C66.2958 11.9593 37.4149 11.9593 19.5995 22.2502Z" fill="black"/>
<path opacity="0.5" d="M91.4975 27.8381C93.4404 30.0315 94.8755 32.6266 95.7003 35.4383C96.5252 38.2499 96.7195 41.209 96.2695 44.1044C94.6927 53.1504 82.0227 60.7717 77.6519 62.5975C79.8723 61.7214 82.0264 60.686 84.0975 59.4992C98.9529 50.9096 101.429 37.8939 91.4975 27.8381Z" fill="#F5F5F5"/>
<path opacity="0.5" d="M12.1582 53.8974C10.2205 51.7035 8.78867 49.1106 7.96405 46.3021C7.13942 43.4936 6.94216 40.5382 7.38624 37.645C8.96306 28.599 21.6468 20.9777 26.0039 19.1519C23.7846 20.0307 21.6307 21.0661 19.5582 22.2502C4.74436 30.8259 2.28229 43.8417 12.1582 53.8974Z" fill="#F5F5F5"/>
<path d="M51.8694 65.3086C75.2833 65.3086 94.2639 54.3475 94.2639 40.8263C94.2639 27.3051 75.2833 16.3439 51.8694 16.3439C28.4555 16.3439 9.47485 27.3051 9.47485 40.8263C9.47485 54.3475 28.4555 65.3086 51.8694 65.3086Z" fill="#BA68C8"/>
<path opacity="0.4" d="M51.8694 65.3086C75.2833 65.3086 94.2639 54.3475 94.2639 40.8263C94.2639 27.3051 75.2833 16.3439 51.8694 16.3439C28.4555 16.3439 9.47485 27.3051 9.47485 40.8263C9.47485 54.3475 28.4555 65.3086 51.8694 65.3086Z" fill="white"/>
<path opacity="0.2" d="M92.3827 48.1432C95.7853 41.8359 94.6788 34.8923 89.0492 29.0138C87.9442 27.8654 86.746 26.8106 85.4668 25.8601C84.3672 25.0439 83.2219 24.2911 82.0365 23.6055C81.3587 23.2044 80.6533 22.8309 79.9479 22.4713C81.7046 25.3622 81.0544 28.4743 71.0679 29.0553C51.5373 30.2033 76.2963 48.8763 76.2963 48.8763C76.2963 48.8763 88.8556 42.7903 92.3827 48.1432Z" fill="white"/>
<path opacity="0.5" d="M90.3219 42.9701C93.2543 42.652 94.7066 39.6367 93.5724 36.234C92.4382 32.8314 89.1324 30.3693 86.2 30.7013C83.2677 31.0333 81.8153 34.0486 82.9495 37.4374C84.0838 40.8262 87.3896 43.3021 90.3219 42.9701Z" fill="white"/>
<path d="M59.4216 58.545C58.4534 51.2833 26.737 31.1995 26.737 31.1995C26.737 31.1995 19.6966 28.364 22.0342 23.4537C20.8631 24.1207 19.7316 24.855 18.6454 25.6529C17.9301 26.1603 17.2422 26.7051 16.5844 27.2851C7.1373 35.4597 7.12347 46.1932 16.5844 54.3816C17.2207 54.9349 17.9676 55.4882 18.6454 56.0138C19.6526 56.7547 20.7009 57.4382 21.7852 58.0609C22.8641 58.6972 23.9845 59.2781 25.1463 59.8175C26.0685 60.2601 27.0228 60.6751 28.0095 61.0624C28.9777 61.4359 29.9736 61.7955 30.9834 62.1274C34.0719 63.133 37.2356 63.8915 40.4444 64.3959C41.1498 64.5204 41.8275 64.6172 42.5744 64.714C45.7122 65.114 48.8723 65.3126 52.0354 65.3088C55.9137 65.2985 59.785 64.9794 63.6127 64.3544C63.6127 64.3544 58.5087 63.317 59.4216 58.545Z" fill="#BA68C8"/>
<path opacity="0.3" d="M59.4216 58.545C58.4534 51.2833 26.737 31.1995 26.737 31.1995C26.737 31.1995 19.6966 28.364 22.0342 23.4537C20.8631 24.1207 19.7316 24.855 18.6454 25.6529C17.9301 26.1603 17.2422 26.7051 16.5844 27.2851C7.1373 35.4597 7.12347 46.1932 16.5844 54.3816C17.2207 54.9349 17.9676 55.4882 18.6454 56.0138C19.6526 56.7547 20.7009 57.4382 21.7852 58.0609C22.8641 58.6972 23.9845 59.2781 25.1463 59.8175C26.0685 60.2601 27.0228 60.6751 28.0095 61.0624C28.9777 61.4359 29.9736 61.7955 30.9834 62.1274C34.0719 63.133 37.2356 63.8915 40.4444 64.3959C41.1498 64.5204 41.8275 64.6172 42.5744 64.714C45.7122 65.114 48.8723 65.3126 52.0354 65.3088C55.9137 65.2985 59.785 64.9794 63.6127 64.3544C63.6127 64.3544 58.5087 63.317 59.4216 58.545Z" fill="white"/>
<path d="M29.517 27.9351C17.6908 34.768 17.2067 45.6675 28.1338 52.8324C28.5903 53.1367 29.0744 53.441 29.5862 53.7315C41.9104 60.841 61.9112 60.841 74.2492 53.7315C86.5872 46.6219 86.5872 35.0585 74.2492 27.9351C73.7512 27.6446 73.2256 27.368 72.7 27.1052C60.2375 20.8255 41.3571 21.1022 29.517 27.9351Z" fill="#BA68C8"/>
<path opacity="0.2" d="M29.517 27.9351C17.6908 34.768 17.2067 45.6675 28.1338 52.8324C28.5903 53.1367 29.0744 53.441 29.5862 53.7315C41.9104 60.841 61.9112 60.841 74.2492 53.7315C86.5872 46.6219 86.5872 35.0585 74.2492 27.9351C73.7512 27.6446 73.2256 27.368 72.7 27.1052C60.2375 20.8255 41.3571 21.1022 29.517 27.9351Z" fill="black"/>
<path d="M51.8694 58.2545C68.5456 58.2545 82.0643 50.4517 82.0643 40.8264C82.0643 31.2012 68.5456 23.3983 51.8694 23.3983C35.1932 23.3983 21.6746 31.2012 21.6746 40.8264C21.6746 50.4517 35.1932 58.2545 51.8694 58.2545Z" fill="#BA68C8"/>
<path opacity="0.5" d="M51.8694 58.2545C68.5456 58.2545 82.0643 50.4517 82.0643 40.8264C82.0643 31.2012 68.5456 23.3983 51.8694 23.3983C35.1932 23.3983 21.6746 31.2012 21.6746 40.8264C21.6746 50.4517 35.1932 58.2545 51.8694 58.2545Z" fill="black"/>
<path d="M30.5268 33.3709C42.3115 26.5518 61.4271 26.5518 73.2257 33.3709C78.0391 36.1373 80.8885 39.6368 81.7737 43.2607C80.8885 46.8846 78.0391 50.3703 73.2257 53.1504C61.4271 59.9695 42.3115 59.9695 30.5268 53.1504C25.6995 50.3841 22.8502 46.8846 21.9788 43.2607C22.8502 39.6368 25.6995 36.1511 30.5268 33.3709Z" fill="#BA68C8"/>
<path opacity="0.35" d="M30.5268 33.3709C42.3115 26.5518 61.4271 26.5518 73.2257 33.3709C78.0391 36.1373 80.8885 39.6368 81.7737 43.2607C80.8885 46.8846 78.0391 50.3703 73.2257 53.1504C61.4271 59.9695 42.3115 59.9695 30.5268 53.1504C25.6995 50.3841 22.8502 46.8846 21.9788 43.2607C22.8502 39.6368 25.6995 36.1511 30.5268 33.3709Z" fill="black"/>
<path d="M70.8881 46.0826C70.8881 45.4878 70.8881 43.095 70.8881 42.4725C70.8881 41.0064 69.8646 39.5678 67.6653 38.323H67.5823C65.7618 37.3518 63.7653 36.7549 61.7105 36.5672C59.6557 36.3795 57.5842 36.605 55.6178 37.2303C54.041 37.6314 52.5333 38.157 51.1501 38.6134C49.5804 39.1998 47.9778 39.694 46.3505 40.0935C45.6033 40.2702 44.8355 40.3447 44.0682 40.3148C43.4144 40.2752 42.7749 40.1059 42.1871 39.8168L42.3254 39.7062L42.8095 39.4157C43.2135 39.178 43.6342 38.97 44.0682 38.7933C45.1207 38.3251 46.2556 38.0705 47.4072 38.0444C48.5588 38.0183 49.7041 38.2211 50.7767 38.6411L54.6496 34.7267V31.1443C51.2356 29.9839 47.5556 29.854 44.0682 30.7708C42.9152 31.0563 41.7903 31.4452 40.7071 31.9327L36.8342 29.6919L32.2144 32.3615V35.8056L33.7912 36.7185C33.3713 37.3361 33.1362 38.0606 33.1134 38.8071C33.1134 39.4019 33.1134 41.7809 33.1134 42.3895C33.1134 43.8695 34.1646 45.2942 36.3916 46.5391C38.3368 47.6712 40.5324 48.3033 42.7819 48.3787C43.1968 48.3787 43.6256 48.3787 44.0544 48.3787C46.395 48.2105 48.7001 47.7122 50.9012 46.8987L52.2843 46.4423L48.3838 50.3428V53.9391C50.7867 54.8429 53.3476 55.2513 55.9125 55.1395C58.4773 55.0278 60.9931 54.3984 63.3083 53.289L67.1397 55.4883L71.7595 52.8326V49.2363L70.1689 48.3234C70.6143 47.6588 70.8635 46.8823 70.8881 46.0826ZM61.2059 45.7783C60.8607 45.9728 60.5052 46.1483 60.1408 46.3039C57.7366 47.3355 55.0221 47.3753 52.5887 46.4146C56.1988 45.1421 59.2279 44.0217 61.8007 45.4049C61.5517 45.4879 61.358 45.6538 61.1367 45.7783H61.2059Z" fill="#BA68C8"/>
<path d="M55.6178 37.1886C54.041 37.5897 52.5333 38.1153 51.1501 38.5718C49.5804 39.1581 47.9778 39.6523 46.3505 40.0518C45.6033 40.2285 44.8355 40.303 44.0682 40.2731C43.2939 40.2341 42.5401 40.0112 41.869 39.623C40.389 38.7654 40.1677 37.5067 42.3254 36.082L42.8095 35.7915C43.2105 35.5483 43.6316 35.3401 44.0682 35.1691C45.1207 34.7009 46.2556 34.4464 47.4072 34.4203C48.5588 34.3941 49.7041 34.597 50.7767 35.017L54.6496 31.1026C51.2356 29.9422 47.5556 29.8123 44.0682 30.7291C42.9152 31.0146 41.7903 31.4035 40.7071 31.891L36.8342 29.6502L32.2144 32.3198L36.0458 34.5328C32.159 37.479 32.0899 40.5497 36.4469 43.0671C38.3921 44.1992 40.5877 44.8313 42.8372 44.9067C43.2521 44.9067 43.6809 44.9067 44.1097 44.9067C46.4503 44.7385 48.7554 44.2403 50.9565 43.4267C55.3965 41.9467 58.9928 40.2039 62.0219 41.9191C64.0275 43.0809 63.4743 44.5333 61.275 45.8058C60.9299 46.0003 60.5743 46.1757 60.21 46.3314C58.9901 46.8431 57.6806 47.1066 56.3578 47.1066C55.035 47.1066 53.7255 46.8431 52.5057 46.3314L48.4529 50.3979C50.8542 51.3071 53.4151 51.7195 55.9804 51.6101C58.5457 51.5007 61.0622 50.8719 63.3775 49.7617L67.2089 51.961L71.8287 49.2914L67.9973 47.0922C71.8425 44.1183 72.2852 40.8817 67.8037 38.2536H67.7207C65.8797 37.2682 63.8583 36.6658 61.7782 36.4827C59.6981 36.2997 57.6026 36.5398 55.6178 37.1886Z" fill="#BA68C8"/>
<g opacity="0.3">
<path d="M55.6178 37.1886C54.041 37.5897 52.5333 38.1153 51.1501 38.5718C49.5804 39.1581 47.9778 39.6523 46.3505 40.0518C45.6033 40.2285 44.8355 40.303 44.0682 40.2731C43.2939 40.2341 42.5401 40.0112 41.869 39.623C40.389 38.7654 40.1677 37.5067 42.3254 36.082L42.8095 35.7915C43.2105 35.5483 43.6316 35.3401 44.0682 35.1691C45.1207 34.7009 46.2556 34.4464 47.4072 34.4203C48.5588 34.3941 49.7041 34.597 50.7767 35.017L54.6496 31.1026C51.2356 29.9422 47.5556 29.8123 44.0682 30.7291C42.9152 31.0146 41.7903 31.4035 40.7071 31.891L36.8342 29.6502L32.2144 32.3198L36.0458 34.5328C32.159 37.479 32.0899 40.5497 36.4469 43.0671C38.3921 44.1992 40.5877 44.8313 42.8372 44.9067C43.2521 44.9067 43.6809 44.9067 44.1097 44.9067C46.4503 44.7385 48.7554 44.2403 50.9565 43.4267C55.3965 41.9467 58.9928 40.2039 62.0219 41.9191C64.0275 43.0809 63.4743 44.5333 61.275 45.8058C60.9299 46.0003 60.5743 46.1757 60.21 46.3314C58.9901 46.8431 57.6806 47.1066 56.3578 47.1066C55.035 47.1066 53.7255 46.8431 52.5057 46.3314L48.4529 50.3979C50.8542 51.3071 53.4151 51.7195 55.9804 51.6101C58.5457 51.5007 61.0622 50.8719 63.3775 49.7617L67.2089 51.961L71.8287 49.2914L67.9973 47.0922C71.8425 44.1183 72.2852 40.8817 67.8037 38.2536H67.7207C65.8797 37.2682 63.8583 36.6658 61.7782 36.4827C59.6981 36.2997 57.6026 36.5398 55.6178 37.1886Z" fill="white"/>
</g>
<path opacity="0.45" d="M32.1729 32.2783L36.8342 30.1621L40.6656 31.8496L36.7927 29.6088L32.1729 32.2783Z" fill="#F5F5F5"/>
<path opacity="0.45" d="M43.4873 30.8259C46.7787 30.1655 50.1786 30.2792 53.4185 31.1579L50.7352 34.9755L54.6081 31.0611C51.0135 29.8415 47.1303 29.7594 43.4873 30.8259Z" fill="#F5F5F5"/>
<path opacity="0.45" d="M67.5824 38.2261H67.6654C72.1469 40.8542 71.7043 44.0908 67.8591 47.0647C71.2755 43.3577 70.6254 40.7712 66.96 38.6273C63.4599 36.8537 59.4654 36.3082 55.6179 37.0781C57.5879 36.4612 59.6614 36.2449 61.7163 36.4421C63.7711 36.6393 65.7657 37.2459 67.5824 38.2261Z" fill="#F5F5F5"/>
<path opacity="0.45" d="M67.8589 47.1196L70.7913 49.3742L67.0706 51.9884L71.6904 49.3188L67.8589 47.1196Z" fill="#F5F5F5"/>
<path opacity="0.45" d="M60.0717 46.3039C57.7879 47.4554 55.1495 47.6881 52.6994 46.954L48.3147 50.4258L52.3674 46.3592C53.5909 46.8622 54.9024 47.1163 56.2252 47.1068C57.5479 47.0973 58.8556 46.8243 60.0717 46.3039Z" fill="#F5F5F5"/>
<path opacity="0.45" d="M46.3089 39.9547C45.4135 40.3242 44.4415 40.4694 43.4773 40.3778C42.5131 40.2862 41.5858 39.9605 40.7761 39.429C39.3929 38.281 40.292 37.05 42.2838 35.9849C40.126 37.3681 40.3474 38.6683 41.8274 39.5259C42.4984 39.9141 43.2523 40.1369 44.0266 40.176C44.7939 40.2059 45.5616 40.1314 46.3089 39.9547Z" fill="#F5F5F5"/>
<path opacity="0.45" d="M35.9627 34.5192C35.6307 34.8097 32.8505 37.3962 34.0815 40.052C35.3126 42.7077 39.4621 44.5888 42.7541 44.9346C40.5046 44.8592 38.309 44.2271 36.3638 43.0949C32.0068 40.536 32.0759 37.4654 35.9627 34.5192Z" fill="#F5F5F5"/>
<path d="M12.241 26.3167C14.9537 22.0836 18.7063 18.6167 23.1405 16.2471C40.9559 5.95621 69.8229 5.95621 87.6383 16.2471C92.0726 18.6167 95.8252 22.0836 98.5378 26.3167H101V35.6393C100.668 42.1126 96.2279 48.5444 87.666 53.4824C69.8506 63.7594 40.9836 63.7594 23.1682 53.4824C14.6063 48.5444 10.1386 42.1126 9.80664 35.6393V26.3167H12.241Z" fill="#BA68C8"/>
<path opacity="0.25" d="M12.241 26.3167C14.9537 22.0836 18.7063 18.6167 23.1405 16.2471C40.9559 5.95621 69.8229 5.95621 87.6383 16.2471C92.0726 18.6167 95.8252 22.0836 98.5378 26.3167H101V35.6393C100.668 42.1126 96.2279 48.5444 87.666 53.4824C69.8506 63.7594 40.9836 63.7594 23.1682 53.4824C14.6063 48.5444 10.1386 42.1126 9.80664 35.6393V26.3167H12.241Z" fill="black"/>
<path opacity="0.1" d="M55.3826 8.52893C67.0566 8.52893 78.7307 11.1016 87.6384 16.2471C92.0726 18.6167 95.8253 22.0836 98.5379 26.3167H101V35.6393C100.668 42.1126 96.2279 48.5444 87.666 53.4824C78.7584 58.6278 67.0843 61.2005 55.4102 61.2005L55.3826 8.52893Z" fill="black"/>
<path opacity="0.1" d="M80.2937 12.8031C82.8304 13.7521 85.2866 14.9038 87.6384 16.2472C92.0726 18.6168 95.8253 22.0837 98.5379 26.3168H101V35.6395C100.668 42.1128 96.2279 48.5445 87.666 53.4825C85.3143 54.8259 82.8581 55.9777 80.3213 56.9266L80.2937 12.8031Z" fill="black"/>
<path opacity="0.5" d="M30.4853 12.8031C27.9486 13.7521 25.4924 14.9038 23.1406 16.2472C18.7064 18.6168 14.9537 22.0837 12.2411 26.3168H9.77905V35.6395C10.111 42.1128 14.5787 48.5445 23.1406 53.4825C25.4924 54.8259 27.9486 55.9777 30.4853 56.9266V12.8031Z" fill="#BA68C8"/>
<path d="M87.6384 7.69915C105.454 17.99 105.454 34.6574 87.6384 44.9482C72.0638 53.9389 47.9964 55.0593 30.2917 48.3232L29.5863 48.0466C27.3683 47.1648 25.2146 46.1295 23.1406 44.9482C8.28524 36.3725 5.82317 23.343 15.7406 13.3011C17.9545 11.1409 20.4424 9.28079 23.1406 7.76833C40.956 -2.57787 69.823 -2.5779 87.6384 7.69915Z" fill="#BA68C8"/>
<path opacity="0.2" d="M87.6384 7.69915C105.454 17.99 105.454 34.6574 87.6384 44.9482C72.0638 53.9389 47.9964 55.0593 30.2917 48.3232L29.5863 48.0466C27.3683 47.1648 25.2146 46.1295 23.1406 44.9482C8.28524 36.3725 5.82317 23.343 15.7406 13.3011C17.9545 11.1409 20.4424 9.28079 23.1406 7.76833C40.956 -2.57787 69.823 -2.5779 87.6384 7.69915Z" fill="black"/>
<path opacity="0.5" d="M15.7406 13.3009C13.8024 15.4916 12.3701 18.0821 11.5454 20.8885C10.7207 23.6949 10.5237 26.6484 10.9686 29.5395C12.5454 38.5993 25.2154 46.1377 29.5863 48.0464C27.3683 47.1647 25.2146 46.1293 23.1406 44.9481C8.28524 36.3724 5.82317 23.3566 15.7406 13.3009Z" fill="#F5F5F5"/>
<path opacity="0.5" d="M95.0385 39.3462C96.9768 37.1555 98.4091 34.565 99.2338 31.7586C100.058 28.9522 100.255 25.9987 99.8105 23.1076C98.2337 14.0478 85.5637 6.44028 81.1929 4.60065C83.4133 5.47672 85.5674 6.51218 87.6385 7.69896C102.494 16.2747 104.956 29.2905 95.0385 39.3462Z" fill="#F5F5F5"/>
<path d="M55.4102 50.7714C78.824 50.7714 97.8047 39.8102 97.8047 26.289C97.8047 12.7678 78.824 1.8067 55.4102 1.8067C31.9963 1.8067 13.0156 12.7678 13.0156 26.289C13.0156 39.8102 31.9963 50.7714 55.4102 50.7714Z" fill="#BA68C8"/>
<path opacity="0.4" d="M55.4102 50.7714C78.824 50.7714 97.8047 39.8102 97.8047 26.289C97.8047 12.7678 78.824 1.8067 55.4102 1.8067C31.9963 1.8067 13.0156 12.7678 13.0156 26.289C13.0156 39.8102 31.9963 50.7714 55.4102 50.7714Z" fill="white"/>
<path opacity="0.2" d="M14.9245 33.5925C11.508 27.299 12.6284 20.3555 18.2441 14.4631C19.3508 13.3155 20.554 12.265 21.8404 11.3233C22.9396 10.5023 24.0849 9.74496 25.2707 9.05487C25.9484 8.65375 26.6539 8.28028 27.3593 7.92065C25.6026 10.8253 26.2527 13.9375 36.2393 14.5184C55.7699 15.6526 31.0109 34.3256 31.0109 34.3256C31.0109 34.3256 18.4239 28.2534 14.9245 33.5925Z" fill="white"/>
<path opacity="0.5" d="M16.9579 28.4332C14.0256 28.1012 12.5594 25.0859 13.7074 21.6971C14.8555 18.3083 18.1474 15.8185 21.0798 16.1643C24.0121 16.5101 25.4645 19.5117 24.3303 22.9005C23.1961 26.2893 19.8902 28.7652 16.9579 28.4332Z" fill="white"/>
<path d="M47.858 43.9939C48.8263 36.7322 80.5426 16.6484 80.5426 16.6484C80.5426 16.6484 87.583 13.882 85.2455 8.90253C86.4135 9.57453 87.5448 10.3087 88.6343 11.1018C89.3674 11.6274 90.0174 12.1807 90.6952 12.734C100.142 20.9086 100.156 31.6559 90.6952 39.8444C90.0589 40.3976 89.312 40.9371 88.6343 41.4765C87.666 42.1819 86.6148 42.8597 85.4944 43.5236C84.374 44.1875 83.2952 44.727 82.1333 45.2803C81.2066 45.7229 80.2383 46.124 79.2701 46.5113C78.3019 46.8986 77.306 47.2582 76.2963 47.5901C73.2059 48.5892 70.0428 49.3477 66.8353 49.8586C66.1299 49.9692 65.4521 50.0799 64.7052 50.1629C61.5681 50.5693 58.4075 50.768 55.2442 50.7576C51.3654 50.7611 47.4929 50.4419 43.667 49.8032C43.667 49.8032 48.7709 48.7659 47.858 43.9939Z" fill="#BA68C8"/>
<path opacity="0.3" d="M47.858 43.9939C48.8263 36.7322 80.5426 16.6484 80.5426 16.6484C80.5426 16.6484 87.583 13.882 85.2455 8.90253C86.4135 9.57453 87.5448 10.3087 88.6343 11.1018C89.3674 11.6274 90.0174 12.1807 90.6952 12.734C100.142 20.9086 100.156 31.6559 90.6952 39.8444C90.0589 40.3976 89.312 40.9371 88.6343 41.4765C87.666 42.1819 86.6148 42.8597 85.4944 43.5236C84.374 44.1875 83.2952 44.727 82.1333 45.2803C81.2066 45.7229 80.2383 46.124 79.2701 46.5113C78.3019 46.8986 77.306 47.2582 76.2963 47.5901C73.2059 48.5892 70.0428 49.3477 66.8353 49.8586C66.1299 49.9692 65.4521 50.0799 64.7052 50.1629C61.5681 50.5693 58.4075 50.768 55.2442 50.7576C51.3654 50.7611 47.4929 50.4419 43.667 49.8032C43.667 49.8032 48.7709 48.7659 47.858 43.9939Z" fill="white"/>
<path d="M77.7625 13.3841C89.5887 20.217 90.0728 31.1165 79.1456 38.2814C78.6892 38.5857 78.2051 38.8899 77.6933 39.1804C65.3553 46.3038 45.3683 46.3038 33.0303 39.1804C20.6924 32.057 20.6924 20.5075 33.0303 13.3841C33.5283 13.1074 34.0539 12.817 34.5795 12.5541C47.042 6.2745 65.9224 6.56498 77.7625 13.3841Z" fill="#BA68C8"/>
<path opacity="0.2" d="M77.7625 13.3841C89.5887 20.217 90.0728 31.1165 79.1456 38.2814C78.6892 38.5857 78.2051 38.8899 77.6933 39.1804C65.3553 46.3038 45.3683 46.3038 33.0303 39.1804C20.6924 32.057 20.6924 20.5075 33.0303 13.3841C33.5283 13.1074 34.0539 12.817 34.5795 12.5541C47.042 6.2745 65.9224 6.56498 77.7625 13.3841Z" fill="black"/>
<path d="M55.4102 43.7173C72.0864 43.7173 85.6051 35.9145 85.6051 26.2892C85.6051 16.6639 72.0864 8.86108 55.4102 8.86108C38.734 8.86108 25.2153 16.6639 25.2153 26.2892C25.2153 35.9145 38.734 43.7173 55.4102 43.7173Z" fill="#BA68C8"/>
<path opacity="0.5" d="M55.4102 43.7173C72.0864 43.7173 85.6051 35.9145 85.6051 26.2892C85.6051 16.6639 72.0864 8.86108 55.4102 8.86108C38.734 8.86108 25.2153 16.6639 25.2153 26.2892C25.2153 35.9145 38.734 43.7173 55.4102 43.7173Z" fill="black"/>
<path d="M76.7528 18.8198C64.9681 12.0146 45.8525 12.0146 34.0539 18.8198C29.2404 21.5862 26.3911 25.0995 25.5059 28.7096C26.3911 32.3335 29.2404 35.833 34.0539 38.6132C45.8525 45.4184 64.9681 45.4184 76.7528 38.6132C81.5801 35.8468 84.4295 32.3335 85.3009 28.7096C84.4295 25.0995 81.5801 21.6 76.7528 18.8198Z" fill="#BA68C8"/>
<path opacity="0.35" d="M76.7528 18.8198C64.9681 12.0146 45.8525 12.0146 34.0539 18.8198C29.2404 21.5862 26.3911 25.0995 25.5059 28.7096C26.3911 32.3335 29.2404 35.833 34.0539 38.6132C45.8525 45.4184 64.9681 45.4184 76.7528 38.6132C81.5801 35.8468 84.4295 32.3335 85.3009 28.7096C84.4295 25.0995 81.5801 21.6 76.7528 18.8198Z" fill="black"/>
<path d="M74.4015 31.5313C74.4015 30.9504 74.4015 28.5436 74.4015 27.935C74.4015 26.455 73.3779 25.0165 71.1787 23.7855H71.1095C69.2866 22.814 67.2878 22.2168 65.2307 22.0292C63.1736 21.8415 61.0997 22.0671 59.1311 22.6928C57.5405 23.0939 56.0328 23.6057 54.6635 24.076C53.0931 24.6641 51.4906 25.1629 49.8638 25.5698C49.1165 25.7459 48.3488 25.8204 47.5815 25.7911C46.9216 25.7517 46.2767 25.5776 45.6866 25.2794L45.8388 25.1825L46.309 24.892C46.7189 24.6525 47.144 24.44 47.5815 24.2558C49.7091 23.3177 52.1221 23.263 54.29 24.1036L58.1629 20.2031V16.6206C54.7503 15.4557 51.0702 15.321 47.5815 16.2333C46.4278 16.5313 45.2993 16.9198 44.2066 17.3952L40.3337 15.0576L35.6724 17.7271V21.3234L37.2492 22.2363C36.8214 22.85 36.5855 23.577 36.5714 24.325V27.8935C36.5714 29.3736 37.6365 30.7982 39.8634 32.0431C41.8011 33.1812 43.9938 33.8137 46.2399 33.8827H47.5262C49.8656 33.7059 52.1695 33.2079 54.373 32.4027L55.7562 31.9463L51.8556 35.8468V39.4293C54.2577 40.3371 56.8191 40.7475 59.3846 40.6358C61.95 40.524 64.4661 39.8924 66.7801 38.7792L70.6116 40.9923L75.2314 38.3228V34.7403L73.6407 33.8274C74.1167 33.1546 74.3815 32.3553 74.4015 31.5313ZM64.7192 31.227C64.371 31.4288 64.0107 31.6089 63.6403 31.7664C61.2361 32.798 58.5216 32.8378 56.0882 31.8771C59.7121 30.6046 62.7274 29.4842 65.3002 30.8536L64.7192 31.227Z" fill="#BA68C8"/>
<path d="M59.1865 22.596C57.5958 22.9971 56.0881 23.5089 54.7188 23.9792C53.1484 24.5673 51.5459 25.0661 49.9191 25.473C49.1718 25.6491 48.4041 25.7235 47.6369 25.6943C46.862 25.6479 46.1087 25.4205 45.4376 25.0304C43.9438 24.1728 43.7363 22.9141 45.8941 21.5033L46.3644 21.2128C46.7743 20.9733 47.1993 20.7607 47.6369 20.5765C49.7644 19.6384 52.1774 19.5837 54.3453 20.4244L58.2182 16.5238C54.8056 15.3589 51.1256 15.2242 47.6369 16.1365C46.4831 16.4345 45.3546 16.823 44.2619 17.2984L40.3337 15.0576L35.6724 17.7271L39.49 19.9403C35.6032 22.9003 35.5202 25.9571 39.8911 28.4745C41.8287 29.6126 44.0214 30.2451 46.2675 30.3141H47.5539C49.8933 30.1373 52.1971 29.6393 54.4007 28.8341C58.8407 27.3403 62.4231 25.5975 65.4661 27.3264C67.4717 28.4745 66.9185 29.9268 64.7192 31.1994C64.371 31.4012 64.0107 31.5813 63.6403 31.7388C62.423 32.2508 61.1157 32.5146 59.7951 32.5146C58.4745 32.5146 57.1671 32.2508 55.9498 31.7388L51.8971 35.8054C54.2992 36.7131 56.8606 37.1236 59.4261 37.0118C61.9915 36.9001 64.5076 36.2685 66.8216 35.1553L70.6531 37.3684L75.2729 34.6988L71.4414 32.4857C75.2867 29.5119 75.7293 26.2752 71.234 23.6472H71.1648C69.3391 22.6825 67.3389 22.0925 65.2818 21.912C63.2247 21.7315 61.1524 21.964 59.1865 22.596Z" fill="#BA68C8"/>
<g opacity="0.3">
<path d="M59.1865 22.596C57.5958 22.9971 56.0881 23.5089 54.7188 23.9792C53.1484 24.5673 51.5459 25.0661 49.9191 25.473C49.1718 25.6491 48.4041 25.7235 47.6369 25.6943C46.862 25.6479 46.1087 25.4205 45.4376 25.0304C43.9438 24.1728 43.7363 22.9141 45.8941 21.5033L46.3644 21.2128C46.7743 20.9733 47.1993 20.7607 47.6369 20.5765C49.7644 19.6384 52.1774 19.5837 54.3453 20.4244L58.2182 16.5238C54.8056 15.3589 51.1256 15.2242 47.6369 16.1365C46.4831 16.4345 45.3546 16.823 44.2619 17.2984L40.3337 15.0576L35.6724 17.7271L39.49 19.9403C35.6032 22.9003 35.5202 25.9571 39.8911 28.4745C41.8287 29.6126 44.0214 30.2451 46.2675 30.3141H47.5539C49.8933 30.1373 52.1971 29.6393 54.4007 28.8341C58.8407 27.3403 62.4231 25.5975 65.4661 27.3264C67.4717 28.4745 66.9185 29.9268 64.7192 31.1994C64.371 31.4012 64.0107 31.5813 63.6403 31.7388C62.423 32.2508 61.1157 32.5146 59.7951 32.5146C58.4745 32.5146 57.1671 32.2508 55.9498 31.7388L51.8971 35.8054C54.2992 36.7131 56.8606 37.1236 59.4261 37.0118C61.9915 36.9001 64.5076 36.2685 66.8216 35.1553L70.6531 37.3684L75.2729 34.6988L71.4414 32.4857C75.2867 29.5119 75.7293 26.2752 71.234 23.6472H71.1648C69.3391 22.6825 67.3389 22.0925 65.2818 21.912C63.2247 21.7315 61.1524 21.964 59.1865 22.596Z" fill="white"/>
</g>
<path opacity="0.45" d="M35.7139 17.7411L40.3752 15.6249L44.2066 17.2985L40.3337 15.0716L35.7139 17.7411Z" fill="#F5F5F5"/>
<path opacity="0.45" d="M47.0281 16.2889C50.3195 15.6285 53.7194 15.7421 56.9594 16.6209L54.276 20.4246L58.1489 16.524C54.5553 15.2982 50.6702 15.216 47.0281 16.2889Z" fill="#F5F5F5"/>
<path opacity="0.45" d="M71.1231 23.6887H71.1923C75.6876 26.3167 75.245 29.5534 71.3998 32.5272C74.8024 28.8203 74.1662 26.2338 70.4869 24.1037C66.9894 22.3218 62.992 21.7758 59.1448 22.5545C61.1161 21.9351 63.1914 21.7164 65.2486 21.9112C67.3057 22.106 69.3031 22.7103 71.1231 23.6887Z" fill="#F5F5F5"/>
<path opacity="0.45" d="M71.3999 32.569L74.3323 34.8236L70.5977 37.4516L75.2313 34.7821L71.3999 32.569Z" fill="#F5F5F5"/>
<path opacity="0.45" d="M63.5987 31.7667C61.3192 32.9183 58.6834 33.1463 56.2401 32.403L51.8555 35.8886L55.9082 31.8221C57.1292 32.3254 58.4384 32.5797 59.759 32.5702C61.0796 32.5607 62.3851 32.2875 63.5987 31.7667Z" fill="#F5F5F5"/>
<path opacity="0.45" d="M49.8499 25.4731C48.9533 25.8368 47.9823 25.9789 47.0192 25.8874C46.056 25.7959 45.1292 25.4735 44.3171 24.9475C42.934 23.7995 43.833 22.5685 45.8248 21.5034C43.667 22.8866 43.8745 24.1729 45.3684 25.0305C46.0395 25.4207 46.7927 25.6481 47.5676 25.6945C48.3349 25.7237 49.1025 25.6492 49.8499 25.4731Z" fill="#F5F5F5"/>
<path opacity="0.45" d="M39.5036 19.9681C39.1716 20.2585 36.3914 22.8589 37.6225 25.5008C38.8535 28.1427 43.003 30.0377 46.295 30.3973C44.0489 30.3283 41.8562 29.6957 39.9186 28.5577C35.5339 25.985 35.6722 22.9281 39.5036 19.9681Z" fill="#F5F5F5"/>
<path d="M15.1044 21.683L16.2524 12.9551L17.4004 21.683L32.5186 22.3469L17.4004 23.0108L16.2524 31.7387L15.1044 23.0108L0 22.3469L15.1044 21.683Z" fill="white"/>
</svg>
