<svg width="43" height="43" viewBox="0 0 43 43" fill="none" xmlns="http://www.w3.org/2000/svg">
<path d="M21.2432 0C9.51201 0 0 9.51201 0 21.2432C0 32.9743 9.51201 42.4863 21.2432 42.4863C32.9743 42.4863 42.4863 32.9743 42.4863 21.2432C42.4863 9.51201 32.9743 0 21.2432 0ZM31.4522 16.013C31.4664 16.2358 31.4664 16.4682 31.4664 16.6958C31.4664 23.6567 26.1651 31.6751 16.4777 31.6751C13.4904 31.6751 10.7212 30.8073 8.3882 29.3137C8.81496 29.3611 9.22276 29.3801 9.659 29.3801C12.1247 29.3801 14.3913 28.5455 16.1979 27.1325C13.8839 27.085 11.9398 25.5677 11.2759 23.4813C12.0868 23.5998 12.817 23.5998 13.6516 23.3864C12.4601 23.1444 11.3892 22.4973 10.6207 21.5551C9.85226 20.6129 9.4337 19.4337 9.43614 18.2179V18.1515C10.1332 18.5451 10.9535 18.7869 11.8118 18.8201C11.0903 18.3393 10.4986 17.6878 10.0891 16.9235C9.6797 16.1593 9.46517 15.3058 9.46459 14.4387C9.46459 13.4572 9.72064 12.561 10.1806 11.7833C11.5031 13.4113 13.1534 14.7429 15.0242 15.6913C16.8949 16.6398 18.9444 17.184 21.0393 17.2885C20.2948 13.7085 22.9692 10.8113 26.1841 10.8113C27.7015 10.8113 29.0671 11.4467 30.0297 12.4709C31.2199 12.248 32.3579 11.8023 33.3726 11.2048C32.9791 12.4235 32.154 13.4524 31.0586 14.102C32.1208 13.9882 33.145 13.6943 34.0934 13.2817C33.3774 14.3344 32.4812 15.2685 31.4522 16.013Z" fill="white"/>
</svg>
